<svg xmlns="http://www.w3.org/2000/svg" viewBox="0 0 134.785 68.475" enable-background="new 0 0 134.785 68.475" class="svg-logo"><path d="M5.07 44.6h7.454v3.365H5.07V44.6zM0 30.076h4.048v17.89H0v-17.89z"></path><path d="M27.563 43.977c-.176.454-.478 1.234-1.183 2.09-1.31 1.562-3.325 2.268-5.367 2.268-4.634 0-6.976-3.3-6.976-7.154 0-4.23 2.846-7.278 7.028-7.278 2.392 0 4.08 1.058 5.062 2.393 1.21 1.587 1.588 3.804 1.588 5.97h-8.618c-.1-.453-.126-.832-.15-1.412 0-.554.024-1.007.15-1.536h4.537c-.126-.705-.378-1.158-.554-1.41-.454-.605-1.234-.957-2.067-.957-1.435 0-3.047.906-3.047 4.005 0 1.94.705 4.23 3.148 4.23 1.764 0 2.343-1.132 2.52-1.485l3.93.277z"></path><path d="M61.18 34.974c.737-.5 1.524-.87 2.753-.87 1.158 0 2.14.352 2.87.88 1.764 1.26 1.815 3.175 1.84 4.585v8.387h-3.955v-8.212c0-.63-.126-2.342-2.015-2.342-.714 0-1.188.27-1.495.54v-2.97zm-4.955-.645h3.93v13.626h-3.93V34.33z"></path><path d="M30.584 38.712c.202-3.123 2.293-4.736 5.844-4.736 1.46 0 2.998.203 4.18 1.06 1.69 1.183 1.74 2.846 1.79 4.357v5.87c0 1.282.05 1.862.504 2.67H38.77c-.2-.48-.277-.808-.302-2.017v-6.95c.025-.733.05-1.967-2.04-1.967-.428 0-2.216.05-2.268 1.712h-3.576z"></path><path d="M37.596 47.665c-.184.117-.377.216-.573.3-1.05.446-2.19.446-2.483.446-2.57 0-4.71-1.587-4.71-4.382 0-3.225 2.695-3.88 3.98-4.157.47-.105 2.606-.465 3.646-.665v1.348c0 .426 0 1.337-.007 1.338-.65.14-1.723.348-2.03.424-1.082.303-1.66.73-1.66 1.587 0 .858.68 1.462 1.812 1.462.398 0 1.062-.062 1.757-.41.04-.02.125-.066.13-.07h.008c-.05.453-.035.824-.027 1.24.008.41.096 1.155.164 1.527l-.008.015z"></path><path d="M51.03 34.75c.38-.33 1.088-.722 2.35-.722.302 0 .502.024.704.05v3.552c-.25-.05-.428-.076-.83-.076-1.19 0-1.808.262-2.225.62v-3.423zm-4.98-.42h3.954v13.626H46.05V34.33z"></path><path d="M126.13 42.976l3.693 4.986h4.962l-6.196-7.96 5.792-5.692h-5.038l-3.214 3.61z"></path><path d="M121.256 47.958v-17.78h3.853v17.78h-3.275z"></path><path d="M121.256 50.447h3.853v3.703h-3.854z"></path><path d="M95.618 38.717c.202-3.123 2.293-4.736 5.844-4.736 1.462 0 2.998.203 4.182 1.06 1.687 1.184 1.738 2.846 1.787 4.357v5.87c0 1.284.052 1.864.506 2.67h-4.13c-.202-.48-.28-.806-.304-2.016v-6.95c.025-.73.05-1.966-2.04-1.966-.428 0-2.216.05-2.267 1.713h-3.577z"></path><path d="M102.63 47.67c-.185.117-.378.215-.574.3-1.05.445-2.19.445-2.483.445-2.57 0-4.71-1.587-4.71-4.383 0-3.224 2.695-3.88 3.98-4.156.47-.107 2.607-.466 3.647-.666v1.348c0 .426-.002 1.337-.008 1.337-.648.14-1.723.348-2.027.424-1.084.3-1.663.73-1.663 1.586 0 .856.68 1.46 1.813 1.46.398 0 1.062-.062 1.758-.41l.13-.068.008-.002c-.05.454-.034.824-.026 1.242.008.41.095 1.154.163 1.526l-.008.015z"></path><path d="M116.064 34.756c.38-.332 1.088-.724 2.35-.724.302 0 .502.024.704.05v3.552c-.25-.05-.428-.075-.83-.075-1.188 0-1.808.26-2.225.62v-3.424zm-4.98-.422h3.954V47.96h-3.955V34.335z"></path><path d="M77.244 34.695c.754-.535 1.625-.74 2.532-.74 1.687 0 3.124.706 3.727 2.293.453-.655 1.588-2.292 4.157-2.292 1.36 0 2.418.453 3.2 1.21 1.182 1.133 1.208 2.367 1.233 5.087v7.683h-3.93v-7.81c-.025-.855-.025-2.644-1.963-2.644-1.94 0-2.017 1.764-2.042 2.696v7.783h-3.93V40.86c0-1.36-.024-2.065-.452-2.645-.403-.58-1.108-.705-1.537-.705-.454 0-.763.097-.997.213v-3.025zm-4.95 13.266V34.335h3.93V47.96h-3.93z"></path><path d="M.002 54.14H1.34v6.095h8.337V54.14h1.337v14.04H9.677v-6.804H1.34v6.803H0z"></path><path d="M22.696 63.106c0 2.91-1.69 5.37-4.798 5.37s-4.798-2.46-4.798-5.37 1.69-5.37 4.798-5.37 4.798 2.46 4.798 5.37m-8.357 0c0 2.163 1.18 4.326 3.558 4.326 2.38 0 3.56-2.163 3.56-4.326s-1.18-4.326-3.56-4.326-3.56 2.163-3.56 4.326"></path><path d="M24.545 58.032h1.14v2.38h.04c.63-1.633 2.006-2.596 3.835-2.518v1.24c-2.242-.12-3.776 1.533-3.776 3.637v5.41h-1.24V58.03z"></path><path d="M36.816 61.002c-.06-1.534-1.24-2.222-2.655-2.222-1.1 0-2.398.432-2.398 1.75 0 1.1 1.26 1.495 2.104 1.71l1.652.374c1.416.217 2.89 1.043 2.89 2.813 0 2.202-2.182 3.048-4.07 3.048-2.36 0-3.972-1.102-4.17-3.58h1.24c.098 1.672 1.337 2.537 2.99 2.537 1.16 0 2.772-.51 2.772-1.927 0-1.18-1.1-1.573-2.222-1.848l-1.593-.354c-1.613-.433-2.832-.984-2.832-2.714 0-2.066 2.026-2.852 3.815-2.852 2.026 0 3.638 1.062 3.717 3.264h-1.24z"></path><path d="M40.926 63.44c.02 1.81.964 3.992 3.343 3.992 1.808 0 2.79-1.062 3.185-2.596h1.24c-.532 2.3-1.87 3.638-4.426 3.638-3.226 0-4.583-2.477-4.583-5.368 0-2.674 1.357-5.37 4.582-5.37 3.263 0 4.56 2.853 4.463 5.704h-7.807zm6.568-1.042c-.06-1.868-1.22-3.618-3.225-3.618-2.026 0-3.147 1.77-3.344 3.618h6.568z"></path><path d="M50.385 58.032h1.24v1.75h.038c.452-1.22 1.81-2.045 3.245-2.045 2.85 0 3.717 1.495 3.717 3.913v6.53h-1.24v-6.333c0-1.75-.57-3.068-2.576-3.068-1.967 0-3.147 1.494-3.186 3.48v5.92h-1.24V58.03z"></path><path d="M67.042 61.002c-.06-1.534-1.24-2.222-2.655-2.222-1.1 0-2.4.432-2.4 1.75 0 1.1 1.26 1.495 2.105 1.71l1.652.374c1.416.217 2.89 1.043 2.89 2.813 0 2.202-2.182 3.048-4.07 3.048-2.36 0-3.972-1.102-4.17-3.58h1.24c.098 1.672 1.337 2.537 2.99 2.537 1.16 0 2.772-.51 2.772-1.927 0-1.18-1.1-1.573-2.222-1.848l-1.593-.354c-1.612-.433-2.83-.984-2.83-2.714 0-2.066 2.025-2.852 3.814-2.852 2.026 0 3.638 1.062 3.717 3.264h-1.238z"></path><path d="M119.093 0c-6.622 0-11.99 5.37-11.99 11.99h18.01v4.048h-17.308c1.66 4.63 6.087 7.943 11.288 7.943 6.622 0 11.99-5.367 11.99-11.99S125.715 0 119.093 0m6.02 10.967h-3.365V3.514h3.365v7.453z" fill="#E2A31D"></path></svg>